<svg xmlns="http://www.w3.org/2000/svg" viewBox="0 0 437 316"><defs><linearGradient id="a" x1="1.047" y1=".043" x2="1.032" y2=".924" gradientUnits="objectBoundingBox"><stop offset="0" stop-color="#c2c2c2"/><stop offset="1" stop-color="#9f9f9f"/></linearGradient></defs><g data-name="Group 395"><path data-name="Path 134" d="M5 0h427a5 5 0 0 1 5 5v306a5 5 0 0 1-5 5H5a5 5 0 0 1-5-5V5a5 5 0 0 1 5-5z" fill="#f2f2f2"/><g opacity=".55"><path d="M138.015 93.256h161.457a7.014 7.014 0 0 1 7.014 7.014v65a7.014 7.014 0 0 1-7.014 7.014H138.015a7.014 7.014 0 0 1-7.014-7.018v-65a7.014 7.014 0 0 1 7.014-7.01z" fill="#f2f2f2"/><g transform="translate(172.288 93.001)"><rect width="43.895" height="48.142" rx="8.397" transform="rotate(-16.343 116.08 16.669)" fill="#9f9f9f"/><g transform="rotate(16.321 16.35 114.021)" stroke="#fff" stroke-linecap="round" stroke-linejoin="round"><rect width="57.382" height="61.709" rx="4.596" stroke-width="5.398" fill="url(#a)"/><g stroke-width="2.257"><path fill="#ccc" d="M6.344 5.617h45.119v41.342H6.344z"/><path fill="#fff" d="M6.344 5.617h45.119V24.91H6.344z"/><path d="m9.1 24.91 3.534-4.919 5.561-4.149 1.459 1.707 1.246-3.554.753-.274 1.228-2.592 16.537 16.537" fill="#ccc" fill-rule="evenodd"/><path d="M22.881 11.129q.564 2.27 1 4.571.328 1.745.58 3.5l-2.03-.655-4.236-2.703.489 4.265-.148 2.278.924 2.791 6.724-1.08 7.723-1.942-4.393-7.114-.891 1.372-2.492-2.033z" fill="#b3b3b3" fill-rule="evenodd"/><path d="m20.125 27.667 7.524-6.838 1.7-.889 2.176-4.06 2.381-1.994 16.537 16.537" fill="#ccc" fill-rule="evenodd"/><path d="m33.906 13.886 3.3 7.434v5.533l2.063 1.788a7.493 7.493 0 0 1 2.062-1.443 25.381 25.381 0 0 1 4.334-1.251 4.781 4.781 0 0 0 1.673-.723 2.741 2.741 0 0 0 .347-.312h-2.754l-3.725-3.726-2.741-4.5-.942.812z" fill="#b3b3b3" fill-rule="evenodd"/><path d="M20.125 46.959c-.038-.882-.81-1.618 1.573-2.818 2.924-1.472 11.566-3.3 13.979-5.511 1.785-1.638-6.469-3.461-5.055-5.427.642-.893 5.422-1.834 7.547-2.781 2.013-.9 1.391-1.819 2.885-2.754 1.444-.902 6.28-1.816 6.633-2.758-.957.967-6.324 1.875-8.269 2.756-2.052.93-1.972 1.831-4.541 2.709-2.768.946-8.19 1.888-9.436 2.8-2.61 1.917 4.305 3.914 1.489 5.512-3.815 2.165-13.72 3.978-17.829 5.512-2.84 1.065-2.611 1.635-2.757 2.76" fill="#fff" fill-rule="evenodd"/></g></g></g></g><text transform="translate(219 216.768)" fill="#bfbfbf" font-size="16" font-family="Poppins-Regular, Poppins"><tspan x="-85.488" y="0">Choose Image to Edit</tspan></text></g></svg>